<svg width="100" height="100" xmlns="http://www.w3.org/2000/svg" preserveAspectRatio="xMidYMid meet" version="1.0">

<g>
  <title>Layer 1</title>
  <g stroke="null" id="svg_1" fill="#ffffff" transform="translate(0 200) scale(0.1 -0.1)">
  <path stroke="null" id="svg_2" d="m597.73518,1781.78757c-120.14348,-25.31916 -318.02687,-110.41967 -427.56945,-182.8606c-112.36949,-74.55086 -179.5085,-156.13482 -168.20088,-206.06983c5.65381,-25.31916 36.74977,-55.56149 67.84573,-64.00121c35.33632,-10.54965 84.80716,-8.43972 205.65737,6.32979c98.94169,12.65958 166.78742,17.58275 198.59011,15.47282c11.30762,-0.70331 11.30762,-2.10993 2.12018,-21.0993c-34.62959,-65.40783 -156.89325,-120.26601 -270.6762,-120.26601c-43.81703,0 -52.29775,2.10993 -58.65829,14.0662c-9.18744,16.87944 -38.86995,18.98937 -45.23049,2.81324c-6.36054,-16.87944 11.30762,-47.12177 34.62959,-59.07804c48.05739,-23.91254 190.10939,-3.51655 277.03674,38.68205c106.00896,52.04494 156.89325,150.50834 93.99461,182.8606c-36.74977,18.98937 -89.75425,19.69268 -204.95065,3.51655c-142.052,-19.69268 -221.20535,-21.80261 -237.46006,-5.62648c-10.6009,10.54965 -10.6009,13.36289 3.53363,43.60522c53.00448,108.30974 340.64211,263.03794 563.96764,303.82992c65.01883,11.25296 138.51837,9.14303 146.99908,-4.92317c15.54798,-24.61585 -101.7686,-153.32158 -178.09505,-196.22349c-50.8843,-28.83571 -57.95156,-39.38536 -37.4565,-59.07804l14.84125,-14.76951l47.35067,24.61585c54.41793,28.1324 175.26814,142.06862 194.34975,184.26722c19.08161,40.08867 15.54798,73.84755 -9.18744,97.05678c-11.30762,10.54965 -31.09596,21.0993 -43.11031,23.91254c-36.74977,7.0331 -120.14348,3.51655 -170.32105,-7.0331z"/>
  <path stroke="null" id="svg_3" d="m877.59882,1601.03689c-73.49954,-61.89128 -160.42689,-153.32158 -185.86904,-194.81687c-19.08161,-30.94564 -19.08161,-64.00121 -0.70673,-80.88065c18.37489,-16.87944 57.24484,-11.25296 126.50402,17.58275c28.97578,11.95627 65.01883,23.20923 79.15335,25.31916c14.84125,2.81324 32.50941,10.54965 38.86995,17.58275c11.30762,12.65958 11.30762,14.0662 -1.41345,28.1324c-16.96143,18.98937 -48.76412,15.47282 -128.6242,-15.47282c-32.50941,-11.95627 -60.07174,-20.39599 -62.19192,-18.28606c-9.18744,8.43972 137.81164,161.05799 216.25827,224.35589c26.8556,21.80261 30.38923,27.42909 24.0287,38.68205c-16.25471,26.02247 -34.62959,18.98937 -106.00896,-42.1986z"/>
  </g>
</g>
</svg>
