<svg version="1.2" xmlns="http://www.w3.org/2000/svg" viewBox="0 0 1190 1190" width="100" height="100">
	<title>Samuel-logo-ai</title>
	<style>
		.s0 { fill: #ffdd00 } 
		.s1 { fill: black; } 
	</style>
	<g id="圖層 1">
		<path id="&lt;Path&gt;" class="s0" d="m1109.6 550.3c-14.7 5.7-29.9 0.2-44.6-5.2q-0.5-0.1-1-0.2c-7.8-0.4-15.5-0.9-23-0.7-8.8 0.3-19.4 0.8-27.8 4.7-1 0.4-1.8 1.3-2 2.3-0.8 3.5 1.1 6.9 5 9.3 11.6 7.2 26.5 8.8 39.7 5.9 0.8-0.1 3.6-0.2 2.6 1.4-6.4 10.4-9.9 22.2-20.1 29.8-7.8 5.8 6.1 11.3 10.9 15.5 4.9 4.1 9.4 8.3 12.8 13.7 8.4 13.4-7.8 21.4-18.3 24.9-26.4 9-52.5 12.5-77.2 26.6-15.9 9.1-33.6 20.1-48.1 33.7q-0.4 0.5-0.8 1c-6.8 11.3-11.2 23.4-14.8 35.8q-0.2 0.5-0.2 0.9c-0.7 11.9 0.9 24.1 2.8 35.7 3.3 20.6 9.5 41 11.7 61.8 1.1 9.4 0.7 16.4-10.6 16.4-9.2-0.1-16.8-4.6-23.7-10.3-7.3-6-20.8-22.6-31.4-14.8-18.5 13.8-28.4 37.3-41.9 55.5-8.5 11.4-19.8 16.7-32.1 23.6-8.9 5-17.8 9.9-26.7 15-2.2 1.3-10.7 7.8-12.8 7.1 1.8 0.6-2.8 2.1-3.5 2-3.8-0.3-26.4-5.9-33.3-9.3-8.3-4.1-16.5-9.6-25.6-12-3.1-0.9-6-1-8.5-0.7-0.8 0.1-1.4 0.5-2 1q-2 2.1-3.8 5.2c-6.2 10.3-10 22-13.9 33.4-5.5 16.6-11.7 45.4-31.5 50.8-0.8 0.2-2.7 0.2-2.8-0.9-0.3-2.3-0.8-4.4-1.3-6.5-0.7-3-4.5-3.8-6.4-1.5-6.3 7.7-14.4 15.4-22.5 13.3-8.1-2.1-5.9-19.4-5.4-24.9 0.4-6.2 1.2-12.3 1.8-18.4 0.7-8.4-3.4-13.8-8.6-20.6-2.9-3.8-9.4-13.3-14.8-7.5-2.5 2.7-4.6 5.6-6.7 8.5-4.4 6.2-9.2 12.8-15.8 16.8-4.1 2.5-6.5 3.3-7.9 8.1q-1.6 5.3-2.7 10.7c-2 8.9-3.6 17.9-5.1 26.9-3.5 20.8-6.8 41.7-12.4 62.1-7 25.5-20 61.8-52.7 58.3-0.6-0.1-1.3-0.3-1.5-1-18.2-49.7 14.9-102.9 35.7-146.3 5.7-11.9 11.5-24 16-36.4 2.3-6.5 4.6-13.1 6-19.8 0.7-3.3 5.2-15.9-1.1-14-21.9 6.4-8.2 31.4-22 44.5-3.5 3.3-29.9 16.8-32.4 5.3-1.2-5.4 0.9-10.8 0.9-16.1-0.1-5.1-4.2-8.3-3.5-13.1 1.7-12.5 8.4-35.4-13.9-28.8q-2.4 0.8-4.2 1.6c-0.7 0.2-1.2 0.7-1.5 1.2q-3.2 4.7-4.7 11.4c-1.9 8.7-2.2 18.4-6.3 26.6-3.6 7.2-20 23-28.3 12.8-8.5-10.6-5.4-30.9-4.5-43.4 0.6-8.6 1.5-17.2 2.2-25.8q0-0.6 0.1-1.2c-3.3-1.9-3.5-2-6.9-3.8-4.7 3.7-10.2 5.8-15.7 2.5-8.5-5.3-12.4-17-16.4-25.6-2.8-6-7-16.7-13.5-21.9-0.6-0.4-1.3-0.7-2-0.7-6.4-0.4-12.2 1.6-15.4 7.4-6.6 12.2-0.7 26.3-4.3 39-2.8 10-13.7 17-21.6 22.7-11.4 8.2-23.5 15.3-36.5 20.6-10.1 4.2-25.5 9.2-36.2 3.8-13.8-7.1-14.7-29.7-8.5-42.2 17.8-36.5 75-37.3 89-76.9 6.8-19.1 0-37.5-16-49.2-11.2-8-26.9-14.4-33.5-27.2-1.6-3.2-2.7-6.6-3.2-10.1-0.8 0.1-0.7-3.2-0.4-4.2q0.1-0.4 0.1-0.9 0-2.5 0.4-5.1 0-0.6 0-1.1c-0.8-4.8-4.4-8.2-11.4-9.2-7.9-1.3-17.8-2.4-25.6 0.2-11.1 3.7-25 14.1-37.1 8.3-12.2-5.9-10.3-21.6-3.2-30.4 3.2-3.8 6.8-7.2 10.6-10.4q0.3-0.2 0.5-0.4c2-2.5 4.3-4.7 6.9-6.4 2.2-1.4 4.5-2.5 6.9-3.5q0.3-0.1 0.6-0.3c2.5-1.6 18.2-6.6 23.1-8.1 3.2-0.9 6.6-1.6 10.1-2.5 0.6-0.1 1.2-0.4 1.6-0.8 0.9-0.9 1.7-1.9 2.2-3 2.4-5.2 1.3-11.8-0.7-17q-0.5-1.5-1.2-2.8-0.5-0.8-1.2-1.3c-8.8-5.7-19.7-11.9-27.3-8.1-7.2 3.6-26.6 16.7-35.1 9.7-12.8-10.5 0.2-28.8 12.1-32.4 4.7-1.4 10.6-1.9 16.4-2.7q0.9-0.1 1.6-0.6 2-1.4 3.9-2.7c5.7-4 11.4-8 17.1-12 0.6-0.4 1-0.9 1.3-1.5 2.8-6.2 4.2-13 1.9-19.6-6.9-19.6-13.9-26.4-31.8-30.4-25.6-5.6-44.9-8.6-67.1-0.3-22.7 8.4-47.2 20.3-72.1 17-9.5-1.3-37.8-13.9-37.1-26.7 1.1-18.6 56.5-11.8 67.8-11.6 55.6 1.4 36.4 0.9 90.7-12.1 26.8-6.4 31.8-15 46.1-40.1q0.5-0.9 1.1-1.7 0.4-0.9 0.4-1.9c0-8.9 2-17.4 8.2-24.4 6.5-7.4 15.9-13.2 20.2-22.2 6.3-13.6 12.4-26.7 16.1-41.2 3.9-15 6.6-31.5 13.3-45.6 4.6-9.4 12.3-13.9 18.9-21.4 7.9-9 9.3-22.4 3.2-32.8-12.8-21.5-34-37.3-38.2-63.3-0.2-1.3 2.6-1.8 3.4-1.8 17.5-1.2 27.4 16.6 35.4 29.5 5.5 8.6 11.1 19 19.5 25.2 8.9 6.3 27.5 5.4 28.3-8.3 1.2-20.5-12.4-39.4-12.4-60 0-18.8 13-26.3 30.3-27.8 0.5-0.1 2.3-0.2 2.1 0.8-6.7 25-3.2 48.8 14.7 67.2 1.2 1.3 3.3 1.4 4.7 0.3 8-6.1 17.2-10.1 27.3-12.1 13.7-2.7 29.9-2.1 42.4-8.9 7.1-3.9 13.2-9.4 17.3-16.4 2.5-4.3-7.8-9.8-10.4-12.2-11.7-10.8-34.1-35.9-14.6-50.2 10.2-7.5 23.6 2.4 30.4 9.9 4 4.6 10 11.3 10.6 17.7 0 0.8 0.1 1.5 0 2.3q1.1-0.7 2.2-1.4 0.1-0.1 0.3-0.2c10.2-7.7 51.6-63.3 64.1-32.8 0.4 1.1 2.7 9.5 3.8 9.3 4.2-0.7 8.5-1.8 11.7-4.8 3.4-3.1 5.6-7 7-11.4 2.2-7.4 2.8-15.1 4.9-22.6 4.9-16.6 10-52.2 36.1-34.8 17.7 11.7-7.3 101.9 30.8 128.6 51.5 36 114.9 4.2 172.3 15.3 1.8 0.4 3.4-0.7 4.2-2.4 8.3-18.9 33.8-11.9 45.4-10.6 23.2 2.6 90.5 20 107.2-46.1 4.3-17.1 11.9-25.2 22.3-34.9 8.8-8.3 20.5-14.9 32.1-18.5 12.8-4 35.4-7.6 43.2 7.3 9.5 18.4-2.9 45.8-16.9 57.7-46.9 39.8-122.5 32-134.8 104.6-2.3 14.1-11.4 26.4-16 40.1q-0.1 0.4-0.1 0.9-0.7 8.4-0.8 16.5c-0.1 7.2 8.1 38.4 9.5 46.2 2.3 13.6 1 26.7 2.1 40.3 1.2 15.1 6.6 30.2 14.6 43.1 14.3 22.9 37.1 32.5 62 40.2 31.5 9.8 65.1 11.5 96.6 21.9 9.8 3.3 25.6 7.6 30.8 17.8 5.4 10.7-8.4 19.6-16.7 22.9z"/>
		<path id="&lt;Path&gt;" class="s0" d="m678.8 138.5c-5.9-16.2 1.3-43.8 16.7-49.8 1.8-0.8 3.5-1.9 5.1-3.1 2.4-1.9 9.7-1.5 11.5 1.2 1.3 1.7 5.1 11.6 5.3 13.2 2.9 18.5-9.7 39.4-29.3 41.8-2.9 0.4-8.1 0-9.3-3.3z"/>
		<path id="&lt;Path&gt;" class="s0" d="m780.4 117.9c2-0.8 3.8-1.9 5.8-2.8 2.3-1.1 9.4-0.9 11.3 0.7 12.3 10 12.6 27.4 6.4 41-5.7 12.6-16.9 17.2-30 14.5-32.9-6.7-16-43.8 6.5-53.4z"/>
		<path id="&lt;Path&gt;" class="s0" d="m173.7 944.7c-9.9 5.4-21.5 9.8-32.8 9.1-11.4-0.6-19-8.2-19.5-17.9-3.8-6.6 0-13 7.2-18.5 6.5-7.5 16.1-11.7 26.1-12.8 1.6-0.5 3.1-1 4.6-1.5 8.8-3.7 18.7-5.9 27.6-2.8 1.7 0.5 3.2 1.4 4.7 2.3 2.1 0.4 6.8 6.3 6.3 7.9 0.8 2.2 1 4.7 0.4 7.4-2.9 12.4-14 21-24.6 26.8z"/>
		<path id="&lt;Path&gt;" class="s0" d="m944.2 999.4c-1.3 10.4-11.7 19.7-21.1 22.9-7.9 2.8-15.5-13.7-15.8-14.5-2.2-6 13.6-20.9 15.7-21.1 8.4-0.5 22.8 0.8 21.2 12.7z"/>
		<path id="&lt;Path&gt;" class="s0" d="m985.4 1027.7c1.5 3.2 1.5 6.7-1.6 10-6.6 7.3-17.5 7.6-26.3 5.2-1.2-0.3-6.6-8.6-6.6-11.9 0.2-8.5 9.8-14.5 16.1-18.2 2.5-1.5 14.3 1.2 15.3 3.3 1.7 3.5 3.1 7.7 3.1 11.6z"/>
		<path id="&lt;Path&gt;" class="s0" d="m973.4 724.7c1.5 3.2 1.5 6.6-1.6 10-6.6 7.3-17.5 7.6-26.3 5.2-1.2-0.3-6.6-8.6-6.6-11.9 0.2-8.5 9.8-14.5 16.1-18.3 2.5-1.4 14.3 1.2 15.3 3.4 1.7 3.5 3.1 7.6 3.1 11.6z"/>
		<path id="&lt;Path&gt;" class="s0" d="m892.4 996.7c-22.9 11.4-49.4-1.1-65.6-18.3-13.1-13.9-41.6-48-10.4-60 23.6-9 34.6 20.6 52 30.7 1.2-0.1 51.2 34 24 47.6z"/>
		<path id="&lt;Path&gt;" class="s0" d="m1026.3 803.4c0.9 7.9-4 14.4-9.3 19.7-4.3 4.3-9.5 7.7-15.7 8-2.3 0.1-4.6-0.2-6.8-0.9-2.2 0.5-17.4-9.1-18.6-11.7-2.2-4.6 2.3-8.8 6.5-11.9 1.8-2.3 7.9-7.3 8.9-8.1 6.4-4.3 14.6-7.5 22.4-5.8 5.4 1.2 11.9 4.5 12.6 10.7z"/>
		<path id="&lt;Path&gt;" class="s0" d="m187 372c7.2-3.3 14.9-0.6 21.6 2.8 5.4 2.7 10.3 6.6 12.5 12.5 0.8 2 1.2 4.3 1.2 6.7 1.2 1.9-3.2 19.3-5.3 21.3-3.7 3.5-9.2 0.5-13.3-2.5-2.8-1-9.5-5.3-10.5-6-6.1-4.7-11.6-11.6-12.5-19.5-0.5-5.5 0.6-12.6 6.3-15.3z"/>
		<g id="&lt;Group&gt;">
			<g id="&lt;Group&gt;">
				<path id="&lt;Compound Path&gt;" class="s1" d="m422.9 689.3q-21.1-3.1-26.4-1.8-7.2 2.3-10.8-1.9-3.7-4.5 4-11.6l73.6-69.9q6.6-5.6 8.6-6.2 1.9-0.7 4.1 2 3 3.5-3.2 15.5-23.2 44.4-23.9 89.6-0.3 45.3 25.6 76.2 22.7 27.2 59.1 35.3 36.5 8.1 79.4-6.4 42.9-14.5 80.1-45.6 63.2-52.9 73.6-120.8 10.4-67.9-25.6-110.9-24.4-29.1-63.3-38.2-39-9-73.7-1.2-9.5 2.2-12.4-1.3-4.1-4.9 1.2-9.4 6.5-5.4 42.4-6.7 36-1.3 72.6 14.8 36.6 16.2 63 47.8 31.1 37.2 40.2 86.5 9.1 49.3-7.9 96.9-17 47.5-62 85.1-44 36.9-95.4 47.4-51.3 10.5-99.8-7.6-48.5-18.2-79.2-54.9-16.4-19.6-27.4-45.3-11-25.6-16.5-57.4z"/>
			</g>
			<g id="&lt;Group&gt;">
				<path id="&lt;Compound Path&gt;" class="s1" d="m787.8 418.7q21.1 3.5 26.4 2.2 7.2-2.1 10.7 2.1 3.7 4.6-4.1 11.6l-74.8 68.6q-6.8 5.4-8.7 6-1.9 0.7-4.1-2-2.9-3.7 3.5-15.6 24-43.9 25.4-89.1 1.1-45.3-24.2-76.7-22.3-27.5-58.6-36.2-36.3-8.8-79.5 5-43.1 13.8-80.8 44.2-64.2 51.8-75.7 119.5-11.6 67.7 23.6 111.3 23.9 29.6 62.7 39.3 38.8 9.7 73.6 2.5 9.5-2.1 12.5 1.5 4 5-1.4 9.4-6.6 5.3-42.6 6-36 0.6-72.3-16.1-36.2-16.8-62.1-48.9-30.5-37.7-38.7-87.2-8.3-49.5 9.6-96.7 17.8-47.2 63.4-84 44.7-36.1 96.2-45.8 51.5-9.6 99.7 9.4 48.1 19 78.2 56.2 16.1 19.9 26.7 45.7 10.5 25.8 15.4 57.8z"/>
			</g>
		</g>
		<path id="&lt;Path&gt;" class="s0" d="m1021.8 423.5c0 8.5-9.4 15.4-20.9 15.4-11.6 0-20.9-6.9-20.9-15.4 0-8.5 9.3-15.4 20.9-15.4 11.5 0 20.9 6.9 20.9 15.4z"/>
	</g>
</svg>
